<svg width="30" height="30" viewBox="0 0 30 30" fill="none" xmlns="http://www.w3.org/2000/svg">
<g clip-path="url(#clip0_23_651)">
<path d="M5.12642 22.2656C5.19615 22.009 5.04205 21.6521 4.89498 21.3949C4.84919 21.3182 4.79951 21.2439 4.74615 21.1723C3.48478 19.2593 2.81248 17.0183 2.81256 14.727C2.79205 8.1498 8.24596 2.8125 14.9901 2.8125C20.8717 2.8125 25.7813 6.88711 26.9286 12.2959C27.1005 13.0978 27.1873 13.9156 27.1876 14.7357C27.1876 21.3223 21.944 26.7434 15.1999 26.7434C14.1276 26.7434 12.6803 26.4738 11.8911 26.2529C11.1018 26.032 10.3137 25.7391 10.1104 25.6605C9.90247 25.5806 9.68162 25.5395 9.45885 25.5393C9.21552 25.5383 8.97452 25.5868 8.75045 25.6816L4.77603 27.116C4.68896 27.1535 4.5967 27.1776 4.5024 27.1875C4.42799 27.1873 4.35435 27.1723 4.28577 27.1434C4.21719 27.1145 4.15502 27.0723 4.10287 27.0192C4.05071 26.9662 4.00961 26.9032 3.98194 26.8342C3.95426 26.7651 3.94057 26.6912 3.94166 26.6168C3.94655 26.5515 3.95833 26.4869 3.97682 26.424L5.12642 22.2656Z" stroke="#8A2387" stroke-width="4" stroke-miterlimit="10" stroke-linecap="round"/>
</g>
<defs>
<clipPath id="clip0_23_651">
<rect width="30" height="30" fill="white"/>
</clipPath>
</defs>
</svg>
