<svg width="16" height="15" viewBox="0 0 16 15" fill="none" xmlns="http://www.w3.org/2000/svg">
<path d="M8.1155 0.894592C11.0335 0.894592 13.399 3.1798 13.399 5.99876C13.399 7.79156 12.5426 9.60448 11.1108 11.3735C10.6026 12.0013 10.05 12.5867 9.48383 13.1199C9.43719 13.1639 9.39132 13.2066 9.34628 13.2482L9.08649 13.4836L8.84935 13.6901L8.63754 13.8668L8.50818 13.9704C8.28118 14.1491 7.95586 14.1505 7.7272 13.9738L7.59195 13.8656L7.3811 13.6897L7.14439 13.4835L6.88471 13.2482L6.74717 13.1199C6.18101 12.5867 5.62836 12.0013 5.12021 11.3735C3.68845 9.60448 2.83203 7.79156 2.83203 5.99876C2.83203 3.1798 5.19751 0.894592 8.1155 0.894592ZM8.1155 2.09557C5.8841 2.09557 4.0752 3.84308 4.0752 5.99876C4.0752 7.47365 4.82283 9.05629 6.09955 10.6337C6.57093 11.2161 7.08656 11.7623 7.61496 12.26L7.86529 12.4913C7.94776 12.5661 8.03035 12.6409 8.1155 12.7128L8.36568 12.4913L8.61604 12.26C9.14444 11.7623 9.66008 11.2161 10.1314 10.6337C11.4082 9.05629 12.1558 7.47365 12.1558 5.99876C12.1558 3.84308 10.3469 2.09557 8.1155 2.09557ZM8.1155 3.5968C9.48867 3.5968 10.6018 4.67219 10.6018 5.99876C10.6018 7.32532 9.48867 8.40072 8.1155 8.40072C6.74234 8.40072 5.62916 7.32532 5.62916 5.99876C5.62916 4.67219 6.74234 3.5968 8.1155 3.5968ZM8.1155 4.79778C7.42892 4.79778 6.87233 5.33548 6.87233 5.99876C6.87233 6.66204 7.42892 7.19974 8.1155 7.19974C8.80208 7.19974 9.35867 6.66204 9.35867 5.99876C9.35867 5.33548 8.80208 4.79778 8.1155 4.79778Z" fill="white"/>
</svg>
