<svg width="259" height="247" viewBox="0 0 259 247" fill="none" xmlns="http://www.w3.org/2000/svg">
<path d="M174.65 104.357L50.0135 91.8006L50.002 12.4316C50.0035 10.3121 50.5465 8.22818 51.5794 6.37746C52.6124 4.52673 54.101 2.9706 55.9042 1.85669C57.7073 0.742769 59.7652 0.108005 61.8825 0.0126093C63.9998 -0.0827863 66.1064 0.36435 68.0025 1.3116L251.621 93.1211C253.684 94.1558 255.418 95.7437 256.63 97.7075C257.842 99.6713 258.484 101.933 258.484 104.241C258.484 106.549 257.842 108.811 256.63 110.775C255.418 112.738 253.684 114.326 251.621 115.361L68.0256 207.171C66.1296 208.118 64.023 208.565 61.9057 208.47C59.7884 208.374 57.7305 207.739 55.9274 206.626C54.1242 205.512 52.6355 203.955 51.6026 202.105C50.5696 200.254 50.0266 198.17 50.0251 196.051V116.682L174.662 104.357H174.65Z" fill="#E94057"/>
<path d="M103.975 120.5C92.3541 120.5 81.8817 125.416 74.5 133.272C67.1183 125.416 56.6459 120.5 45.025 120.5C22.6218 120.5 4.5 138.749 4.5 161.211C4.5 181.037 16.0839 199.398 29.9474 213.471C43.8522 227.586 60.8137 238.173 73.0743 242.268C73.9996 242.577 75.0004 242.577 75.9257 242.268C88.1863 238.173 105.148 227.586 119.053 213.471C132.916 199.398 144.5 181.037 144.5 161.211C144.5 138.749 126.378 120.5 103.975 120.5Z" fill="#E94057" stroke="white" stroke-width="9" stroke-linecap="round" stroke-linejoin="round"/>
</svg>
