<svg width="18" height="18" viewBox="0 0 18 18" fill="none" xmlns="http://www.w3.org/2000/svg">
<path fill-rule="evenodd" clip-rule="evenodd" d="M2.05166 2.05172C2.53982 1.56357 3.33128 1.56357 3.81943 2.05172L9.18555 7.41784L14.5517 2.05172C15.0398 1.56357 15.8313 1.56357 16.3194 2.05172C16.8076 2.53988 16.8076 3.33134 16.3194 3.81949L10.9533 9.18561L16.3194 14.5517C16.8076 15.0399 16.8076 15.8313 16.3194 16.3195C15.8313 16.8076 15.0398 16.8076 14.5517 16.3195L9.18555 10.9534L3.81943 16.3195C3.33128 16.8076 2.53982 16.8076 2.05166 16.3195C1.56351 15.8313 1.56351 15.0399 2.05166 14.5517L7.41778 9.18561L2.05166 3.81949C1.56351 3.33134 1.56351 2.53988 2.05166 2.05172Z" fill="#F27121" stroke="#F27121" stroke-width="2" stroke-linecap="round" stroke-linejoin="round"/>
</svg>
